<?xml version="1.0" ?>
<!-- Uploaded to: SVG Repo, www.svgrepo.com, Generator: SVG Repo Mixer Tools -->
<svg width="800px" height="800px" viewBox="0 0 24 24" version="1.1" xml:space="preserve" xmlns="http://www.w3.org/2000/svg" xmlns:xlink="http://www.w3.org/1999/xlink">
<style type="text/css">
	.st0{opacity:0.2;fill:none;stroke:#000000;stroke-width:5.000000e-02;stroke-miterlimit:10;}
	.st1{fill:none;stroke:#000000;stroke-width:2;stroke-linecap:round;stroke-linejoin:round;stroke-miterlimit:10;}
</style>
<g id="Layer_1"/>
<g id="Layer_2">
<g>
<path d="M17.5,16c-0.6,0-1-0.4-1-1s0.4-1,1-1c0.7,0,1.3-0.3,1.8-0.7c0.5-0.5,0.7-1.1,0.7-1.8c0-1.4-1.1-2.5-2.5-2.5H16    c-0.6,0-1-0.4-1-1c0-1.7-1.3-3-3-3S9,6.3,9,8c0,0.6-0.4,1-1,1H6.5C5.8,9,5.2,9.3,4.7,9.7C4.3,10.2,4,10.8,4,11.5    C4,12.9,5.1,14,6.5,14c0.6,0,1,0.4,1,1s-0.4,1-1,1C4,16,2,14,2,11.5c0-1.2,0.5-2.3,1.3-3.2C4.2,7.5,5.3,7,6.5,7h0.6    C7.6,4.7,9.6,3,12,3s4.4,1.7,4.9,4h0.6C20,7,22,9,22,11.5c0,1.2-0.5,2.3-1.3,3.2C19.8,15.5,18.7,16,17.5,16z"/>
</g>
<g>
<path d="M9,22c-0.2,0-0.5-0.1-0.7-0.3C8,21.4,7.9,21,8.1,20.6l1.6-3.1l-1.1-0.6c-0.5-0.2-0.7-0.8-0.4-1.3l2-4    c0.2-0.3,0.5-0.6,0.9-0.6h5c0.4,0,0.7,0.2,0.9,0.5c0.2,0.3,0.2,0.7,0,1l-1.7,2.5l0.7,1.5c0.2,0.5,0.1,1-0.3,1.3l-6,4    C9.4,21.9,9.2,22,9,22z M10.3,15.6l1.1,0.6c0.5,0.2,0.7,0.8,0.4,1.3l-0.3,0.6l2.1-1.4l-0.6-1.2c-0.2-0.3-0.1-0.7,0.1-1l1-1.4h-2.5    L10.3,15.6z"/>
</g>
</g>
</svg>